<svg preserveAspectRatio="xMidYMid meet" width="100%" height="100%" overflow="visible" style="display: block;" viewBox="0 0 31.5336 33.0118" fill="none" xmlns="http://www.w3.org/2000/svg">
<g id="Group 753">
<path id="Path 2120" d="M23.2807 17.2802V15.7797L20.805 15.1795C20.7375 14.9176 20.6367 14.6654 20.5049 14.4293L21.8553 12.2536L20.805 11.2033L18.6293 12.5537L17.879 12.2536L17.2789 9.77783H15.7784L15.1782 12.2536L14.428 12.5537L12.2523 11.2033L11.202 12.2536L12.5524 14.4293C12.4206 14.6654 12.3197 14.9176 12.2523 15.1795L9.77651 15.7797V17.2802L12.2523 17.8804C12.3197 18.1423 12.4206 18.3944 12.5524 18.6306L11.202 20.8063L12.2523 21.8566L14.428 20.5062L15.1782 20.8063L15.7784 23.282H17.2789L17.879 20.8063L18.6293 20.5062L20.805 21.8566L21.8553 20.8063L20.5049 18.6306C20.6367 18.3944 20.7375 18.1423 20.805 17.8804L23.2807 17.2802ZM16.5286 18.0304C15.6999 18.0304 15.0281 17.3586 15.0281 16.5299C15.0281 15.7013 15.6999 15.0295 16.5286 15.0295C17.3573 15.0295 18.0291 15.7013 18.0291 16.5299C18.0291 17.3586 17.3573 18.0304 16.5286 18.0304Z" fill="var(--fill-0, white)"/>
<path id="Path 2121" d="M31.5333 9.02771V1.60039C31.5473 0.835149 31.0093 0.170554 30.2579 0.0248989C29.8227 -0.0411644 29.3804 0.087244 29.0482 0.376113C28.716 0.664983 28.5274 1.08517 28.5324 1.52537V5.20151C23.5893 -0.0573568 15.8026 -1.49467 9.30781 1.65292C2.813 4.80051 -0.883494 11.8029 0.181499 18.9413C1.24649 26.0796 6.82595 31.6981 13.9567 32.8128C21.0874 33.9276 28.1154 30.28 31.3082 23.8073C31.6931 23.1556 31.5322 22.3192 30.9331 21.8567C30.5773 21.5863 30.1195 21.4886 29.6843 21.5901C29.2491 21.6917 28.8818 21.9819 28.6824 22.3819C26.4644 27.0795 21.7235 30.0646 16.5286 30.0343C10.3217 30.0399 4.91022 25.8138 3.41162 19.7905C1.91302 13.7672 4.71326 7.49804 10.1992 4.5945C15.6851 1.69096 22.4438 2.90088 26.5817 7.52723L22.6055 7.52724C21.8403 7.51325 21.1757 8.05126 21.03 8.80264C20.964 9.23788 21.0924 9.68018 21.3812 10.0124C21.6701 10.3446 22.0903 10.5332 22.5305 10.5282H30.0328C30.8615 10.5282 31.5333 9.85639 31.5333 9.02771Z" fill="var(--fill-0, white)"/>
</g>
</svg>
