<svg preserveAspectRatio="xMidYMid meet" width="100%" height="100%" overflow="visible" style="display: block;" viewBox="0 0 33.1641 28.655" fill="none" xmlns="http://www.w3.org/2000/svg">
<g id="icons Q2">
<path id="Path 2124" d="M25.7685 16.1358C26.0359 16.4352 26.4221 16.6007 26.8233 16.5879C27.2208 16.5822 27.6 16.4197 27.8782 16.1358L32.7004 11.3136C32.9959 11.0425 33.1641 10.6598 33.1641 10.2588C33.1641 9.85773 32.9959 9.47507 32.7004 9.20393L30.44 6.86819C30.7464 6.39827 30.904 5.84681 30.892 5.28591C30.892 3.6214 29.5427 2.27205 27.8782 2.27205C27.3173 2.2601 26.7658 2.41766 26.2959 2.72413L23.9602 0.46374C23.689 0.168228 23.3064 0 22.9053 0C22.5043 0 22.1216 0.168228 21.8505 0.46374L17.0283 5.28591C16.7328 5.55705 16.5646 5.93971 16.5646 6.34076C16.5646 6.74182 16.7328 7.12448 17.0283 7.39561L20.3435 10.7109L16.5762 14.4782L12.5075 10.4095C13.2054 9.33311 13.5722 8.07563 13.5624 6.79284C13.5624 3.0477 10.5263 0.0116611 6.78118 0.0116611C5.94893 0.0116611 5.27425 0.686336 5.27425 1.51859C5.27425 2.35084 5.94893 3.02552 6.78118 3.02552C8.86181 3.02552 10.5485 4.71221 10.5485 6.79284C10.5485 8.87348 8.86181 10.5602 6.78118 10.5602C4.70054 10.5602 3.01386 8.87348 3.01386 6.79284C3.01386 5.96059 2.33918 5.28591 1.50693 5.28591C0.674675 5.28591 0 5.96059 0 6.79284C0 10.538 3.03604 13.574 6.78118 13.574C8.06397 13.5839 9.32145 13.2171 10.3978 12.5192L14.4665 16.5879L4.97287 26.0815C4.67735 26.3527 4.50913 26.7353 4.50913 27.1364C4.50913 27.5374 4.67735 27.9201 4.97287 28.1912C5.244 28.4867 5.62666 28.655 6.02772 28.655C6.42877 28.655 6.81143 28.4867 7.08257 28.1912L16.5762 18.6976L26.0699 28.1912C26.341 28.4867 26.7237 28.655 27.1247 28.655C27.5258 28.655 27.9084 28.4867 28.1796 28.1912C28.4751 27.9201 28.6433 27.5374 28.6433 27.1364C28.6433 26.7353 28.4751 26.3527 28.1796 26.0815L18.6859 16.5879L22.4532 12.8206L25.7685 16.1358ZM20.1928 6.34076L22.9053 3.62829L29.5358 10.2588L26.8233 12.9712L20.1928 6.34076Z" fill="var(--fill-0, white)"/>
</g>
</svg>
